<?xml version="1.0" encoding="UTF-8" standalone="no"?>
<!DOCTYPE svg PUBLIC "-//W3C//DTD SVG 1.1//EN"
 "http://www.w3.org/Graphics/SVG/1.1/DTD/svg11.dtd">
<!-- Generated by graphviz version 2.36.0 (20140111.2315)
 -->
<!-- Title: G Pages: 1 -->
<svg width="2858pt" height="1633pt"
 viewBox="0.00 0.00 2858.33 1633.33" xmlns="http://www.w3.org/2000/svg" xmlns:xlink="http://www.w3.org/1999/xlink">
<g id="graph0" class="graph" transform="scale(8.33333 8.33333) rotate(0) translate(4 192)">
<title>G</title>
<polygon fill="white" stroke="none" points="-4,4 -4,-192 339,-192 339,4 -4,4"/>
<!-- ZSW_Vertex -->
<g id="node1" class="node"><title>ZSW_Vertex</title>
<polygon fill="none" stroke="black" points="33.5,-93 33.5,-187 188.5,-187 188.5,-93 33.5,-93"/>
<text text-anchor="middle" x="111" y="-173.4" font-family="Bitstream Vera Sans" font-size="12.00">Vertex</text>
<polyline fill="none" stroke="black" points="33.5,-166 188.5,-166 "/>
<text text-anchor="start" x="41.5" y="-152.4" font-family="Bitstream Vera Sans" font-size="12.00">+valid_ : bool</text>
<text text-anchor="start" x="41.5" y="-139.4" font-family="Bitstream Vera Sans" font-size="12.00">+pt_type_:PointType</text>
<text text-anchor="start" x="41.5" y="-126.4" font-family="Bitstream Vera Sans" font-size="12.00">+pt_ : Vector3d</text>
<text text-anchor="start" x="41.5" y="-113.4" font-family="Bitstream Vera Sans" font-size="12.00">+tet_ids_ : list&lt;size_t&gt;</text>
<text text-anchor="start" x="41.5" y="-100.4" font-family="Bitstream Vera Sans" font-size="12.00">+edge_ids_:list&lt;size_t&gt;</text>
</g>
<!-- ZSW_Tet -->
<g id="node3" class="node"><title>ZSW_Tet</title>
<polygon fill="none" stroke="black" points="0,-0.5 0,-55.5 102,-55.5 102,-0.5 0,-0.5"/>
<text text-anchor="middle" x="51" y="-41.9" font-family="Bitstream Vera Sans" font-size="12.00">Tet</text>
<polyline fill="none" stroke="black" points="0,-34.5 102,-34.5 "/>
<text text-anchor="start" x="8" y="-20.9" font-family="Bitstream Vera Sans" font-size="12.00">+valid_ : bool</text>
<text text-anchor="start" x="8" y="-7.9" font-family="Bitstream Vera Sans" font-size="12.00">+vid_[4]:size_t</text>
</g>
<!-- ZSW_Vertex&#45;&gt;ZSW_Tet -->
<g id="edge1" class="edge"><title>ZSW_Vertex&#45;&gt;ZSW_Tet</title>
<path fill="none" stroke="black" d="M80.9858,-83.9739C77.3745,-77.3532 73.7635,-70.7331 70.3621,-64.4972"/>
<polygon fill="black" stroke="black" points="78.041,-85.8845 85.9022,-92.9875 84.1863,-82.5325 78.041,-85.8845"/>
<polygon fill="black" stroke="black" points="73.4142,-62.7835 65.553,-55.6806 67.269,-66.1355 73.4142,-62.7835"/>
</g>
<!-- ZSW_Edge -->
<g id="node4" class="node"><title>ZSW_Edge</title>
<polygon fill="none" stroke="black" points="120,-0.5 120,-55.5 222,-55.5 222,-0.5 120,-0.5"/>
<text text-anchor="middle" x="171" y="-41.9" font-family="Bitstream Vera Sans" font-size="12.00">Edge</text>
<polyline fill="none" stroke="black" points="120,-34.5 222,-34.5 "/>
<text text-anchor="start" x="128" y="-20.9" font-family="Bitstream Vera Sans" font-size="12.00">+valid_: bool</text>
<text text-anchor="start" x="128" y="-7.9" font-family="Bitstream Vera Sans" font-size="12.00">+vid_[2]:size_t</text>
</g>
<!-- ZSW_Vertex&#45;&gt;ZSW_Edge -->
<g id="edge2" class="edge"><title>ZSW_Vertex&#45;&gt;ZSW_Edge</title>
<path fill="none" stroke="black" d="M141.014,-83.9739C144.626,-77.3532 148.236,-70.7331 151.638,-64.4972"/>
<polygon fill="black" stroke="black" points="137.814,-82.5325 136.098,-92.9875 143.959,-85.8845 137.814,-82.5325"/>
<polygon fill="black" stroke="black" points="154.731,-66.1355 156.447,-55.6806 148.586,-62.7835 154.731,-66.1355"/>
</g>
<!-- ZSW_JudgePoint -->
<g id="node2" class="node"><title>ZSW_JudgePoint</title>
<polygon fill="none" stroke="black" points="207,-106 207,-174 335,-174 335,-106 207,-106"/>
<text text-anchor="middle" x="271" y="-160.4" font-family="Bitstream Vera Sans" font-size="12.00">JudgePoint</text>
<polyline fill="none" stroke="black" points="207,-153 335,-153 "/>
<text text-anchor="start" x="215" y="-139.4" font-family="Bitstream Vera Sans" font-size="12.00">+pt_ : Vector3d</text>
<text text-anchor="start" x="215" y="-126.4" font-family="Bitstream Vera Sans" font-size="12.00"> +val_cur_ : double</text>
<text text-anchor="start" x="215" y="-113.4" font-family="Bitstream Vera Sans" font-size="12.00"> +val_exp_:double</text>
</g>
</g>
</svg>
